# xmcd
#
# Track frame offsets:
#	150
#	16449
#	32124
#	48452
#	66535
#	81459
#	95902
#	108628
#	120290
#	133639
#	149938
#	165613
#	181941
#	200024
#	214948
#	229391
#	242117
#	253779
#
# Disc length: 3563 seconds
#
# Revision: 1
# Processed by: cddbd v1.5.2PL0 Copyright (c) Steve Scherf et al.
# Submitted via: audiograbber 1.83.01
#
DISCID=1f0de912
DTITLE=PHN - PHN0104
DYEAR=2001
DGENRE=Karaoke
TTITLE0=Hill, Faith - If My Heart Had Wings 
TTITLE1=Gill, Vince - Shoot Straight From The Heart
TTITLE2=Jackson, Alan  - When Somebody Loves You 
TTITLE3=Clark, Terri - No Fear
TTITLE4=Davidson, Clay - Sometimes
TTITLE5=Edwards, Meredith - A Rose Is Still A Rose
TTITLE6=Rogers, Kenny  - There You Go Again
TTITLE7=Heatherly, Eric - Wrong Five O'clock
TTITLE8=Allan, Gary - Right Where I Need To Be
TTITLE9=Hill, Faith - If My Heart Had Wings (Vocal)
TTITLE10=Gill, Vince - Shoot Straight From The Heart (Vocal)
TTITLE11=Jackson, Alan  - When Somebody Loves You  (Vocal)
TTITLE12=Clark, Terri - No Fear (Vocal)
TTITLE13=Davidson, Clay - Sometimes (Vocal)
TTITLE14=Edwards, Meredith - A Rose Is Still A Rose (Vocal)
TTITLE15=Rogers, Kenny  - There You Go Again (Vocal)
TTITLE16=Heatherly, Eric - Wrong Five O'clock (Vocal)
TTITLE17=Allan, Gary - Right Where I Need To Be (Vocal)
EXTD=vapitilazed tracks fixed album and vocal listings
EXTT0=
EXTT1=
EXTT2=
EXTT3=
EXTT4=
EXTT5=
EXTT6=
EXTT7=
EXTT8=
EXTT9=
EXTT10=
EXTT11=
EXTT12=
EXTT13=
EXTT14=
EXTT15=
EXTT16=
EXTT17=
PLAYORDER=
